<mxfile host="app.diagrams.net" agent="Mozilla/5.0 (Windows NT 10.0; Win64; x64; rv:134.0) Gecko/20100101 Firefox/134.0" version="26.0.5">
  <diagram name="Page-1" id="H4sONhvKyHtje3pTV-qF">
    <mxGraphModel dx="2060" dy="1050" grid="1" gridSize="10" guides="1" tooltips="1" connect="1" arrows="1" fold="1" page="1" pageScale="1" pageWidth="850" pageHeight="1100" math="0" shadow="0">
      <root>
        <mxCell id="0" />
        <mxCell id="1" parent="0" />
        <mxCell id="DvsllvoOx6BmzzlcIda9-117" value="" style="rounded=0;whiteSpace=wrap;html=1;" vertex="1" parent="1">
          <mxGeometry x="130" y="190" width="1820" height="880" as="geometry" />
        </mxCell>
        <mxCell id="DvsllvoOx6BmzzlcIda9-119" value="" style="rounded=0;whiteSpace=wrap;html=1;strokeColor=#000099;fillColor=#27598C;" vertex="1" parent="1">
          <mxGeometry x="130" y="190" width="240" height="880" as="geometry" />
        </mxCell>
        <mxCell id="DvsllvoOx6BmzzlcIda9-120" value="" style="rounded=0;whiteSpace=wrap;html=1;fillColor=#f8cecc;strokeColor=#b85450;" vertex="1" parent="1">
          <mxGeometry x="130" y="190" width="1820" height="30" as="geometry" />
        </mxCell>
        <mxCell id="DvsllvoOx6BmzzlcIda9-121" value="" style="sketch=0;outlineConnect=0;fillColor=#FF0000;strokeColor=#b85450;dashed=0;verticalLabelPosition=bottom;verticalAlign=top;align=center;html=1;fontSize=12;fontStyle=0;aspect=fixed;pointerEvents=1;shape=mxgraph.aws4.alert;" vertex="1" parent="1">
          <mxGeometry x="140" y="195" width="22.61" height="20" as="geometry" />
        </mxCell>
        <mxCell id="DvsllvoOx6BmzzlcIda9-122" value="&lt;font style=&quot;font-size: 14px;&quot;&gt;Gate A3 Maintenance Required - Scheduled for 14:00&lt;/font&gt;" style="text;strokeColor=none;align=center;fillColor=none;html=1;verticalAlign=middle;whiteSpace=wrap;rounded=0;" vertex="1" parent="1">
          <mxGeometry x="170" y="190" width="350" height="30" as="geometry" />
        </mxCell>
        <mxCell id="DvsllvoOx6BmzzlcIda9-123" value="" style="shape=actor;whiteSpace=wrap;html=1;fillColor=none;strokeColor=#FFFFFF;strokeWidth=3;" vertex="1" parent="1">
          <mxGeometry x="140" y="230" width="37.39" height="40" as="geometry" />
        </mxCell>
        <mxCell id="DvsllvoOx6BmzzlcIda9-124" value="&lt;font style=&quot;font-size: 14px;&quot; face=&quot;Verdana&quot;&gt;&lt;span style=&quot;color: rgb(255, 255, 255);&quot;&gt;Owen Lindsey&lt;/span&gt;&lt;/font&gt;" style="text;strokeColor=none;align=center;fillColor=none;html=1;verticalAlign=middle;whiteSpace=wrap;rounded=0;" vertex="1" parent="1">
          <mxGeometry x="190" y="237.5" width="110" height="25" as="geometry" />
        </mxCell>
        <mxCell id="DvsllvoOx6BmzzlcIda9-125" value="&lt;font style=&quot;font-size: 14px;&quot; face=&quot;Verdana&quot;&gt;&lt;span style=&quot;color: rgb(255, 255, 255);&quot;&gt;Operations Manager&lt;/span&gt;&lt;/font&gt;" style="text;strokeColor=none;align=center;fillColor=none;html=1;verticalAlign=middle;whiteSpace=wrap;rounded=0;" vertex="1" parent="1">
          <mxGeometry x="180" y="262.5" width="170" height="25" as="geometry" />
        </mxCell>
        <mxCell id="DvsllvoOx6BmzzlcIda9-127" value="&lt;div align=&quot;left&quot;&gt;&lt;font style=&quot;font-size: 19px; color: rgb(255, 255, 255);&quot;&gt;Dashboard&lt;/font&gt;&lt;/div&gt;" style="rounded=1;whiteSpace=wrap;html=1;fillColor=#7EA6E0;align=left;" vertex="1" parent="1">
          <mxGeometry x="140" y="340" width="200" height="50" as="geometry" />
        </mxCell>
        <mxCell id="DvsllvoOx6BmzzlcIda9-128" value="&lt;font style=&quot;font-size: 18px; color: rgb(255, 255, 255);&quot;&gt;Gate Management&lt;/font&gt;" style="text;strokeColor=none;align=center;fillColor=none;html=1;verticalAlign=middle;whiteSpace=wrap;rounded=0;" vertex="1" parent="1">
          <mxGeometry x="140" y="410" width="160" height="30" as="geometry" />
        </mxCell>
        <mxCell id="DvsllvoOx6BmzzlcIda9-130" value="&lt;font style=&quot;color: rgb(255, 255, 255); font-size: 18px;&quot;&gt;Assignments&lt;/font&gt;" style="text;strokeColor=none;align=center;fillColor=none;html=1;verticalAlign=middle;whiteSpace=wrap;rounded=0;" vertex="1" parent="1">
          <mxGeometry x="160" y="510" width="70" height="30" as="geometry" />
        </mxCell>
        <mxCell id="DvsllvoOx6BmzzlcIda9-131" value="&lt;font style=&quot;font-size: 18px;&quot;&gt;&lt;span style=&quot;color: rgb(255, 255, 255);&quot;&gt;&lt;font&gt;Reports&lt;/font&gt;&lt;/span&gt;&lt;/font&gt;" style="text;strokeColor=none;align=center;fillColor=none;html=1;verticalAlign=middle;whiteSpace=wrap;rounded=0;" vertex="1" parent="1">
          <mxGeometry x="150" y="560" width="50" height="30" as="geometry" />
        </mxCell>
        <mxCell id="DvsllvoOx6BmzzlcIda9-132" value="&lt;font style=&quot;font-size: 18px; color: rgb(255, 255, 255);&quot;&gt;Flight Management&lt;/font&gt;" style="text;strokeColor=none;align=center;fillColor=none;html=1;verticalAlign=middle;whiteSpace=wrap;rounded=0;" vertex="1" parent="1">
          <mxGeometry x="140" y="460" width="160" height="30" as="geometry" />
        </mxCell>
        <mxCell id="DvsllvoOx6BmzzlcIda9-133" value="&lt;b&gt;&lt;font style=&quot;font-size: 21px;&quot;&gt;Operations Dashboard&lt;/font&gt;&lt;/b&gt;" style="text;strokeColor=none;align=center;fillColor=none;html=1;verticalAlign=middle;whiteSpace=wrap;rounded=0;" vertex="1" parent="1">
          <mxGeometry x="390" y="240" width="250" height="30" as="geometry" />
        </mxCell>
        <mxCell id="DvsllvoOx6BmzzlcIda9-134" value="&lt;font style=&quot;font-size: 15px;&quot;&gt;Active Gates&lt;/font&gt;" style="text;strokeColor=none;align=center;fillColor=none;html=1;verticalAlign=middle;whiteSpace=wrap;rounded=0;" vertex="1" parent="1">
          <mxGeometry x="685" y="320" width="140" height="30" as="geometry" />
        </mxCell>
        <mxCell id="DvsllvoOx6BmzzlcIda9-135" value="" style="verticalLabelPosition=bottom;html=1;verticalAlign=top;strokeWidth=2;shape=mxgraph.lean_mapping.airplane_7;" vertex="1" parent="1">
          <mxGeometry x="810" y="320" width="40" height="30" as="geometry" />
        </mxCell>
        <mxCell id="DvsllvoOx6BmzzlcIda9-136" value="&lt;font style=&quot;font-size: 15px;&quot;&gt;Today&#39;s Assignments&lt;/font&gt;" style="text;strokeColor=none;align=center;fillColor=none;html=1;verticalAlign=middle;whiteSpace=wrap;rounded=0;" vertex="1" parent="1">
          <mxGeometry x="1100" y="320" width="140" height="30" as="geometry" />
        </mxCell>
        <mxCell id="DvsllvoOx6BmzzlcIda9-137" value="" style="sketch=0;pointerEvents=1;shadow=0;dashed=0;html=1;strokeColor=none;fillColor=#505050;labelPosition=center;verticalLabelPosition=bottom;verticalAlign=top;outlineConnect=0;align=center;shape=mxgraph.office.concepts.clock;" vertex="1" parent="1">
          <mxGeometry x="1007.5" y="320" width="30" height="30" as="geometry" />
        </mxCell>
        <mxCell id="DvsllvoOx6BmzzlcIda9-138" value="&lt;font style=&quot;font-size: 15px;&quot;&gt;Current Flights&lt;/font&gt;" style="text;strokeColor=none;align=center;fillColor=none;html=1;verticalAlign=middle;whiteSpace=wrap;rounded=0;" vertex="1" parent="1">
          <mxGeometry x="895" y="320" width="110" height="30" as="geometry" />
        </mxCell>
        <mxCell id="DvsllvoOx6BmzzlcIda9-139" value="&lt;font style=&quot;font-size: 15px;&quot;&gt;Active Alerts&lt;/font&gt;" style="text;strokeColor=none;align=center;fillColor=none;html=1;verticalAlign=middle;whiteSpace=wrap;rounded=0;" vertex="1" parent="1">
          <mxGeometry x="1350" y="320" width="110" height="30" as="geometry" />
        </mxCell>
        <mxCell id="DvsllvoOx6BmzzlcIda9-140" value="" style="sketch=0;pointerEvents=1;shadow=0;dashed=0;html=1;strokeColor=none;fillColor=#505050;labelPosition=center;verticalLabelPosition=bottom;verticalAlign=top;outlineConnect=0;align=center;shape=mxgraph.office.concepts.calendar;" vertex="1" parent="1">
          <mxGeometry x="1255" y="320" width="40" height="30" as="geometry" />
        </mxCell>
        <mxCell id="DvsllvoOx6BmzzlcIda9-141" value="" style="html=1;verticalLabelPosition=bottom;align=center;labelBackgroundColor=#ffffff;verticalAlign=top;strokeWidth=2;strokeColor=#FF0000;shadow=0;dashed=0;shape=mxgraph.ios7.icons.bell;fillColor=#FF0000;" vertex="1" parent="1">
          <mxGeometry x="1470" y="320" width="34" height="30" as="geometry" />
        </mxCell>
        <mxCell id="DvsllvoOx6BmzzlcIda9-143" value="&lt;b&gt;&lt;font style=&quot;font-size: 27px;&quot;&gt;18/20&lt;/font&gt;&lt;/b&gt;" style="text;strokeColor=none;align=center;fillColor=none;html=1;verticalAlign=middle;whiteSpace=wrap;rounded=0;" vertex="1" parent="1">
          <mxGeometry x="725" y="360" width="60" height="30" as="geometry" />
        </mxCell>
        <mxCell id="DvsllvoOx6BmzzlcIda9-144" value="&lt;b&gt;&lt;font style=&quot;font-size: 29px;&quot;&gt;24&lt;/font&gt;&lt;/b&gt;" style="text;strokeColor=none;align=center;fillColor=none;html=1;verticalAlign=middle;whiteSpace=wrap;rounded=0;" vertex="1" parent="1">
          <mxGeometry x="920" y="370" width="60" height="30" as="geometry" />
        </mxCell>
        <mxCell id="DvsllvoOx6BmzzlcIda9-145" value="&lt;b&gt;&lt;font style=&quot;font-size: 29px;&quot;&gt;86&lt;/font&gt;&lt;/b&gt;" style="text;strokeColor=none;align=center;fillColor=none;html=1;verticalAlign=middle;whiteSpace=wrap;rounded=0;" vertex="1" parent="1">
          <mxGeometry x="1140" y="370" width="60" height="30" as="geometry" />
        </mxCell>
        <mxCell id="DvsllvoOx6BmzzlcIda9-146" value="&lt;b&gt;&lt;font style=&quot;font-size: 29px;&quot;&gt;3&lt;/font&gt;&lt;/b&gt;" style="text;strokeColor=none;align=center;fillColor=none;html=1;verticalAlign=middle;whiteSpace=wrap;rounded=0;" vertex="1" parent="1">
          <mxGeometry x="1380" y="370" width="60" height="30" as="geometry" />
        </mxCell>
        <mxCell id="DvsllvoOx6BmzzlcIda9-148" value="&lt;font style=&quot;font-size: 20px; color: rgb(0, 0, 0);&quot; face=&quot;Times New Roman&quot;&gt;Terminal 1&lt;br&gt;&lt;/font&gt;" style="text;strokeColor=none;align=center;fillColor=none;html=1;verticalAlign=middle;whiteSpace=wrap;rounded=0;fontColor=#0000FF;" vertex="1" parent="1">
          <mxGeometry x="390" y="520" width="165" height="50" as="geometry" />
        </mxCell>
        <mxCell id="DvsllvoOx6BmzzlcIda9-149" value="" style="rounded=0;whiteSpace=wrap;html=1;fillColor=#dae8fc;strokeColor=#6c8ebf;" vertex="1" parent="1">
          <mxGeometry x="605" y="520" width="80" height="60" as="geometry" />
        </mxCell>
        <mxCell id="DvsllvoOx6BmzzlcIda9-150" value="" style="rounded=0;whiteSpace=wrap;html=1;fillColor=#e1d5e7;strokeColor=#9673a6;" vertex="1" parent="1">
          <mxGeometry x="715" y="520" width="80" height="60" as="geometry" />
        </mxCell>
        <mxCell id="DvsllvoOx6BmzzlcIda9-151" value="" style="rounded=0;whiteSpace=wrap;html=1;fillColor=#d5e8d4;strokeColor=#82b366;" vertex="1" parent="1">
          <mxGeometry x="825" y="520" width="80" height="60" as="geometry" />
        </mxCell>
        <mxCell id="DvsllvoOx6BmzzlcIda9-152" value="" style="rounded=0;whiteSpace=wrap;html=1;fillColor=#fff2cc;strokeColor=#d6b656;" vertex="1" parent="1">
          <mxGeometry x="935" y="520" width="80" height="60" as="geometry" />
        </mxCell>
        <mxCell id="DvsllvoOx6BmzzlcIda9-153" value="" style="rounded=0;whiteSpace=wrap;html=1;fillColor=#dae8fc;strokeColor=#6c8ebf;" vertex="1" parent="1">
          <mxGeometry x="1045" y="520" width="80" height="60" as="geometry" />
        </mxCell>
        <mxCell id="DvsllvoOx6BmzzlcIda9-154" value="Gate" style="text;strokeColor=none;align=center;fillColor=none;html=1;verticalAlign=middle;whiteSpace=wrap;rounded=0;" vertex="1" parent="1">
          <mxGeometry x="612.5" y="520" width="60" height="20" as="geometry" />
        </mxCell>
        <mxCell id="DvsllvoOx6BmzzlcIda9-155" value="A1" style="text;strokeColor=none;align=center;fillColor=none;html=1;verticalAlign=middle;whiteSpace=wrap;rounded=0;" vertex="1" parent="1">
          <mxGeometry x="612.5" y="535" width="60" height="30" as="geometry" />
        </mxCell>
        <mxCell id="DvsllvoOx6BmzzlcIda9-156" value="AA123" style="text;strokeColor=none;align=center;fillColor=none;html=1;verticalAlign=middle;whiteSpace=wrap;rounded=0;" vertex="1" parent="1">
          <mxGeometry x="612.5" y="550" width="60" height="30" as="geometry" />
        </mxCell>
        <mxCell id="DvsllvoOx6BmzzlcIda9-157" value="Gate" style="text;strokeColor=none;align=center;fillColor=none;html=1;verticalAlign=middle;whiteSpace=wrap;rounded=0;" vertex="1" parent="1">
          <mxGeometry x="725" y="520" width="60" height="20" as="geometry" />
        </mxCell>
        <mxCell id="DvsllvoOx6BmzzlcIda9-158" value="Gate" style="text;strokeColor=none;align=center;fillColor=none;html=1;verticalAlign=middle;whiteSpace=wrap;rounded=0;" vertex="1" parent="1">
          <mxGeometry x="835" y="520" width="60" height="20" as="geometry" />
        </mxCell>
        <mxCell id="DvsllvoOx6BmzzlcIda9-159" value="Gate" style="text;strokeColor=none;align=center;fillColor=none;html=1;verticalAlign=middle;whiteSpace=wrap;rounded=0;" vertex="1" parent="1">
          <mxGeometry x="945" y="520" width="60" height="20" as="geometry" />
        </mxCell>
        <mxCell id="DvsllvoOx6BmzzlcIda9-160" value="Gate" style="text;strokeColor=none;align=center;fillColor=none;html=1;verticalAlign=middle;whiteSpace=wrap;rounded=0;" vertex="1" parent="1">
          <mxGeometry x="1055" y="520" width="60" height="20" as="geometry" />
        </mxCell>
        <mxCell id="DvsllvoOx6BmzzlcIda9-161" value="AA123" style="text;strokeColor=none;align=center;fillColor=none;html=1;verticalAlign=middle;whiteSpace=wrap;rounded=0;" vertex="1" parent="1">
          <mxGeometry x="725" y="550" width="60" height="30" as="geometry" />
        </mxCell>
        <mxCell id="DvsllvoOx6BmzzlcIda9-162" value="AA123" style="text;strokeColor=none;align=center;fillColor=none;html=1;verticalAlign=middle;whiteSpace=wrap;rounded=0;" vertex="1" parent="1">
          <mxGeometry x="835" y="550" width="60" height="30" as="geometry" />
        </mxCell>
        <mxCell id="DvsllvoOx6BmzzlcIda9-163" value="AA123" style="text;strokeColor=none;align=center;fillColor=none;html=1;verticalAlign=middle;whiteSpace=wrap;rounded=0;" vertex="1" parent="1">
          <mxGeometry x="945" y="550" width="60" height="30" as="geometry" />
        </mxCell>
        <mxCell id="DvsllvoOx6BmzzlcIda9-164" value="AA123" style="text;strokeColor=none;align=center;fillColor=none;html=1;verticalAlign=middle;whiteSpace=wrap;rounded=0;" vertex="1" parent="1">
          <mxGeometry x="1055" y="550" width="60" height="30" as="geometry" />
        </mxCell>
        <mxCell id="DvsllvoOx6BmzzlcIda9-165" value="A2" style="text;strokeColor=none;align=center;fillColor=none;html=1;verticalAlign=middle;whiteSpace=wrap;rounded=0;" vertex="1" parent="1">
          <mxGeometry x="725" y="535" width="60" height="30" as="geometry" />
        </mxCell>
        <mxCell id="DvsllvoOx6BmzzlcIda9-166" value="A3" style="text;strokeColor=none;align=center;fillColor=none;html=1;verticalAlign=middle;whiteSpace=wrap;rounded=0;" vertex="1" parent="1">
          <mxGeometry x="835" y="535" width="60" height="30" as="geometry" />
        </mxCell>
        <mxCell id="DvsllvoOx6BmzzlcIda9-167" value="A4" style="text;strokeColor=none;align=center;fillColor=none;html=1;verticalAlign=middle;whiteSpace=wrap;rounded=0;" vertex="1" parent="1">
          <mxGeometry x="945" y="535" width="60" height="30" as="geometry" />
        </mxCell>
        <mxCell id="DvsllvoOx6BmzzlcIda9-168" value="A5" style="text;strokeColor=none;align=center;fillColor=none;html=1;verticalAlign=middle;whiteSpace=wrap;rounded=0;" vertex="1" parent="1">
          <mxGeometry x="1055" y="535" width="60" height="30" as="geometry" />
        </mxCell>
        <mxCell id="DvsllvoOx6BmzzlcIda9-169" value="&lt;font style=&quot;font-size: 20px; color: rgb(0, 0, 0);&quot; face=&quot;Times New Roman&quot;&gt;Terminal 2&lt;br&gt;&lt;/font&gt;" style="text;strokeColor=none;align=center;fillColor=none;html=1;verticalAlign=middle;whiteSpace=wrap;rounded=0;fontColor=#0000FF;" vertex="1" parent="1">
          <mxGeometry x="390" y="610" width="165" height="50" as="geometry" />
        </mxCell>
        <mxCell id="DvsllvoOx6BmzzlcIda9-170" value="" style="rounded=0;whiteSpace=wrap;html=1;fillColor=#dae8fc;strokeColor=#6c8ebf;" vertex="1" parent="1">
          <mxGeometry x="605" y="610" width="80" height="60" as="geometry" />
        </mxCell>
        <mxCell id="DvsllvoOx6BmzzlcIda9-171" value="" style="rounded=0;whiteSpace=wrap;html=1;fillColor=#e1d5e7;strokeColor=#9673a6;" vertex="1" parent="1">
          <mxGeometry x="715" y="610" width="80" height="60" as="geometry" />
        </mxCell>
        <mxCell id="DvsllvoOx6BmzzlcIda9-172" value="" style="rounded=0;whiteSpace=wrap;html=1;fillColor=#d5e8d4;strokeColor=#82b366;" vertex="1" parent="1">
          <mxGeometry x="825" y="610" width="80" height="60" as="geometry" />
        </mxCell>
        <mxCell id="DvsllvoOx6BmzzlcIda9-173" value="" style="rounded=0;whiteSpace=wrap;html=1;fillColor=#fff2cc;strokeColor=#d6b656;" vertex="1" parent="1">
          <mxGeometry x="935" y="610" width="80" height="60" as="geometry" />
        </mxCell>
        <mxCell id="DvsllvoOx6BmzzlcIda9-174" value="" style="rounded=0;whiteSpace=wrap;html=1;fillColor=#dae8fc;strokeColor=#6c8ebf;" vertex="1" parent="1">
          <mxGeometry x="1045" y="610" width="80" height="60" as="geometry" />
        </mxCell>
        <mxCell id="DvsllvoOx6BmzzlcIda9-175" value="Gate" style="text;strokeColor=none;align=center;fillColor=none;html=1;verticalAlign=middle;whiteSpace=wrap;rounded=0;" vertex="1" parent="1">
          <mxGeometry x="612.5" y="610" width="60" height="20" as="geometry" />
        </mxCell>
        <mxCell id="DvsllvoOx6BmzzlcIda9-176" value="B1" style="text;strokeColor=none;align=center;fillColor=none;html=1;verticalAlign=middle;whiteSpace=wrap;rounded=0;" vertex="1" parent="1">
          <mxGeometry x="612.5" y="625" width="60" height="30" as="geometry" />
        </mxCell>
        <mxCell id="DvsllvoOx6BmzzlcIda9-177" value="AA123" style="text;strokeColor=none;align=center;fillColor=none;html=1;verticalAlign=middle;whiteSpace=wrap;rounded=0;" vertex="1" parent="1">
          <mxGeometry x="612.5" y="640" width="60" height="30" as="geometry" />
        </mxCell>
        <mxCell id="DvsllvoOx6BmzzlcIda9-178" value="Gate" style="text;strokeColor=none;align=center;fillColor=none;html=1;verticalAlign=middle;whiteSpace=wrap;rounded=0;" vertex="1" parent="1">
          <mxGeometry x="725" y="610" width="60" height="20" as="geometry" />
        </mxCell>
        <mxCell id="DvsllvoOx6BmzzlcIda9-179" value="Gate" style="text;strokeColor=none;align=center;fillColor=none;html=1;verticalAlign=middle;whiteSpace=wrap;rounded=0;" vertex="1" parent="1">
          <mxGeometry x="835" y="610" width="60" height="20" as="geometry" />
        </mxCell>
        <mxCell id="DvsllvoOx6BmzzlcIda9-180" value="Gate" style="text;strokeColor=none;align=center;fillColor=none;html=1;verticalAlign=middle;whiteSpace=wrap;rounded=0;" vertex="1" parent="1">
          <mxGeometry x="945" y="610" width="60" height="20" as="geometry" />
        </mxCell>
        <mxCell id="DvsllvoOx6BmzzlcIda9-181" value="Gate" style="text;strokeColor=none;align=center;fillColor=none;html=1;verticalAlign=middle;whiteSpace=wrap;rounded=0;" vertex="1" parent="1">
          <mxGeometry x="1055" y="610" width="60" height="20" as="geometry" />
        </mxCell>
        <mxCell id="DvsllvoOx6BmzzlcIda9-182" value="AA123" style="text;strokeColor=none;align=center;fillColor=none;html=1;verticalAlign=middle;whiteSpace=wrap;rounded=0;" vertex="1" parent="1">
          <mxGeometry x="725" y="640" width="60" height="30" as="geometry" />
        </mxCell>
        <mxCell id="DvsllvoOx6BmzzlcIda9-183" value="AA123" style="text;strokeColor=none;align=center;fillColor=none;html=1;verticalAlign=middle;whiteSpace=wrap;rounded=0;" vertex="1" parent="1">
          <mxGeometry x="835" y="640" width="60" height="30" as="geometry" />
        </mxCell>
        <mxCell id="DvsllvoOx6BmzzlcIda9-184" value="AA123" style="text;strokeColor=none;align=center;fillColor=none;html=1;verticalAlign=middle;whiteSpace=wrap;rounded=0;" vertex="1" parent="1">
          <mxGeometry x="945" y="640" width="60" height="30" as="geometry" />
        </mxCell>
        <mxCell id="DvsllvoOx6BmzzlcIda9-185" value="AA123" style="text;strokeColor=none;align=center;fillColor=none;html=1;verticalAlign=middle;whiteSpace=wrap;rounded=0;" vertex="1" parent="1">
          <mxGeometry x="1055" y="640" width="60" height="30" as="geometry" />
        </mxCell>
        <mxCell id="DvsllvoOx6BmzzlcIda9-186" value="B2" style="text;strokeColor=none;align=center;fillColor=none;html=1;verticalAlign=middle;whiteSpace=wrap;rounded=0;" vertex="1" parent="1">
          <mxGeometry x="725" y="625" width="60" height="30" as="geometry" />
        </mxCell>
        <mxCell id="DvsllvoOx6BmzzlcIda9-187" value="B3" style="text;strokeColor=none;align=center;fillColor=none;html=1;verticalAlign=middle;whiteSpace=wrap;rounded=0;" vertex="1" parent="1">
          <mxGeometry x="835" y="625" width="60" height="30" as="geometry" />
        </mxCell>
        <mxCell id="DvsllvoOx6BmzzlcIda9-188" value="B4" style="text;strokeColor=none;align=center;fillColor=none;html=1;verticalAlign=middle;whiteSpace=wrap;rounded=0;" vertex="1" parent="1">
          <mxGeometry x="945" y="625" width="60" height="30" as="geometry" />
        </mxCell>
        <mxCell id="DvsllvoOx6BmzzlcIda9-189" value="B5" style="text;strokeColor=none;align=center;fillColor=none;html=1;verticalAlign=middle;whiteSpace=wrap;rounded=0;" vertex="1" parent="1">
          <mxGeometry x="1055" y="625" width="60" height="30" as="geometry" />
        </mxCell>
        <mxCell id="DvsllvoOx6BmzzlcIda9-190" value="&lt;font style=&quot;font-size: 20px; color: rgb(0, 0, 0);&quot; face=&quot;Times New Roman&quot;&gt;Terminal 3&lt;br&gt;&lt;/font&gt;" style="text;strokeColor=none;align=center;fillColor=none;html=1;verticalAlign=middle;whiteSpace=wrap;rounded=0;fontColor=#0000FF;" vertex="1" parent="1">
          <mxGeometry x="392.5" y="710" width="165" height="50" as="geometry" />
        </mxCell>
        <mxCell id="DvsllvoOx6BmzzlcIda9-191" value="" style="rounded=0;whiteSpace=wrap;html=1;fillColor=#dae8fc;strokeColor=#6c8ebf;" vertex="1" parent="1">
          <mxGeometry x="607.5" y="710" width="80" height="60" as="geometry" />
        </mxCell>
        <mxCell id="DvsllvoOx6BmzzlcIda9-192" value="" style="rounded=0;whiteSpace=wrap;html=1;fillColor=#e1d5e7;strokeColor=#9673a6;" vertex="1" parent="1">
          <mxGeometry x="717.5" y="710" width="80" height="60" as="geometry" />
        </mxCell>
        <mxCell id="DvsllvoOx6BmzzlcIda9-193" value="" style="rounded=0;whiteSpace=wrap;html=1;fillColor=#d5e8d4;strokeColor=#82b366;" vertex="1" parent="1">
          <mxGeometry x="827.5" y="710" width="80" height="60" as="geometry" />
        </mxCell>
        <mxCell id="DvsllvoOx6BmzzlcIda9-194" value="" style="rounded=0;whiteSpace=wrap;html=1;fillColor=#fff2cc;strokeColor=#d6b656;" vertex="1" parent="1">
          <mxGeometry x="937.5" y="710" width="80" height="60" as="geometry" />
        </mxCell>
        <mxCell id="DvsllvoOx6BmzzlcIda9-195" value="" style="rounded=0;whiteSpace=wrap;html=1;fillColor=#dae8fc;strokeColor=#6c8ebf;" vertex="1" parent="1">
          <mxGeometry x="1047.5" y="710" width="80" height="60" as="geometry" />
        </mxCell>
        <mxCell id="DvsllvoOx6BmzzlcIda9-196" value="Gate" style="text;strokeColor=none;align=center;fillColor=none;html=1;verticalAlign=middle;whiteSpace=wrap;rounded=0;" vertex="1" parent="1">
          <mxGeometry x="615" y="710" width="60" height="20" as="geometry" />
        </mxCell>
        <mxCell id="DvsllvoOx6BmzzlcIda9-197" value="C1" style="text;strokeColor=none;align=center;fillColor=none;html=1;verticalAlign=middle;whiteSpace=wrap;rounded=0;" vertex="1" parent="1">
          <mxGeometry x="615" y="725" width="60" height="30" as="geometry" />
        </mxCell>
        <mxCell id="DvsllvoOx6BmzzlcIda9-198" value="AA123" style="text;strokeColor=none;align=center;fillColor=none;html=1;verticalAlign=middle;whiteSpace=wrap;rounded=0;" vertex="1" parent="1">
          <mxGeometry x="615" y="740" width="60" height="30" as="geometry" />
        </mxCell>
        <mxCell id="DvsllvoOx6BmzzlcIda9-199" value="Gate" style="text;strokeColor=none;align=center;fillColor=none;html=1;verticalAlign=middle;whiteSpace=wrap;rounded=0;" vertex="1" parent="1">
          <mxGeometry x="727.5" y="710" width="60" height="20" as="geometry" />
        </mxCell>
        <mxCell id="DvsllvoOx6BmzzlcIda9-200" value="Gate" style="text;strokeColor=none;align=center;fillColor=none;html=1;verticalAlign=middle;whiteSpace=wrap;rounded=0;" vertex="1" parent="1">
          <mxGeometry x="837.5" y="710" width="60" height="20" as="geometry" />
        </mxCell>
        <mxCell id="DvsllvoOx6BmzzlcIda9-201" value="Gate" style="text;strokeColor=none;align=center;fillColor=none;html=1;verticalAlign=middle;whiteSpace=wrap;rounded=0;" vertex="1" parent="1">
          <mxGeometry x="947.5" y="710" width="60" height="20" as="geometry" />
        </mxCell>
        <mxCell id="DvsllvoOx6BmzzlcIda9-202" value="Gate" style="text;strokeColor=none;align=center;fillColor=none;html=1;verticalAlign=middle;whiteSpace=wrap;rounded=0;" vertex="1" parent="1">
          <mxGeometry x="1057.5" y="710" width="60" height="20" as="geometry" />
        </mxCell>
        <mxCell id="DvsllvoOx6BmzzlcIda9-203" value="AA123" style="text;strokeColor=none;align=center;fillColor=none;html=1;verticalAlign=middle;whiteSpace=wrap;rounded=0;" vertex="1" parent="1">
          <mxGeometry x="727.5" y="740" width="60" height="30" as="geometry" />
        </mxCell>
        <mxCell id="DvsllvoOx6BmzzlcIda9-204" value="AA123" style="text;strokeColor=none;align=center;fillColor=none;html=1;verticalAlign=middle;whiteSpace=wrap;rounded=0;" vertex="1" parent="1">
          <mxGeometry x="837.5" y="740" width="60" height="30" as="geometry" />
        </mxCell>
        <mxCell id="DvsllvoOx6BmzzlcIda9-205" value="AA123" style="text;strokeColor=none;align=center;fillColor=none;html=1;verticalAlign=middle;whiteSpace=wrap;rounded=0;" vertex="1" parent="1">
          <mxGeometry x="947.5" y="740" width="60" height="30" as="geometry" />
        </mxCell>
        <mxCell id="DvsllvoOx6BmzzlcIda9-206" value="AA123" style="text;strokeColor=none;align=center;fillColor=none;html=1;verticalAlign=middle;whiteSpace=wrap;rounded=0;" vertex="1" parent="1">
          <mxGeometry x="1057.5" y="740" width="60" height="30" as="geometry" />
        </mxCell>
        <mxCell id="DvsllvoOx6BmzzlcIda9-207" value="C2" style="text;strokeColor=none;align=center;fillColor=none;html=1;verticalAlign=middle;whiteSpace=wrap;rounded=0;" vertex="1" parent="1">
          <mxGeometry x="727.5" y="725" width="60" height="30" as="geometry" />
        </mxCell>
        <mxCell id="DvsllvoOx6BmzzlcIda9-208" value="C3" style="text;strokeColor=none;align=center;fillColor=none;html=1;verticalAlign=middle;whiteSpace=wrap;rounded=0;" vertex="1" parent="1">
          <mxGeometry x="837.5" y="725" width="60" height="30" as="geometry" />
        </mxCell>
        <mxCell id="DvsllvoOx6BmzzlcIda9-209" value="C4" style="text;strokeColor=none;align=center;fillColor=none;html=1;verticalAlign=middle;whiteSpace=wrap;rounded=0;" vertex="1" parent="1">
          <mxGeometry x="947.5" y="725" width="60" height="30" as="geometry" />
        </mxCell>
        <mxCell id="DvsllvoOx6BmzzlcIda9-210" value="C5" style="text;strokeColor=none;align=center;fillColor=none;html=1;verticalAlign=middle;whiteSpace=wrap;rounded=0;" vertex="1" parent="1">
          <mxGeometry x="1057.5" y="725" width="60" height="30" as="geometry" />
        </mxCell>
        <mxCell id="DvsllvoOx6BmzzlcIda9-211" value="&lt;font style=&quot;font-size: 20px; color: rgb(0, 0, 0);&quot; face=&quot;Times New Roman&quot;&gt;Terminal 4&lt;br&gt;&lt;/font&gt;" style="text;strokeColor=none;align=center;fillColor=none;html=1;verticalAlign=middle;whiteSpace=wrap;rounded=0;fontColor=#0000FF;" vertex="1" parent="1">
          <mxGeometry x="390" y="800" width="165" height="50" as="geometry" />
        </mxCell>
        <mxCell id="DvsllvoOx6BmzzlcIda9-212" value="" style="rounded=0;whiteSpace=wrap;html=1;fillColor=#dae8fc;strokeColor=#6c8ebf;" vertex="1" parent="1">
          <mxGeometry x="605" y="800" width="80" height="60" as="geometry" />
        </mxCell>
        <mxCell id="DvsllvoOx6BmzzlcIda9-213" value="" style="rounded=0;whiteSpace=wrap;html=1;fillColor=#e1d5e7;strokeColor=#9673a6;" vertex="1" parent="1">
          <mxGeometry x="715" y="800" width="80" height="60" as="geometry" />
        </mxCell>
        <mxCell id="DvsllvoOx6BmzzlcIda9-214" value="" style="rounded=0;whiteSpace=wrap;html=1;fillColor=#d5e8d4;strokeColor=#82b366;" vertex="1" parent="1">
          <mxGeometry x="825" y="800" width="80" height="60" as="geometry" />
        </mxCell>
        <mxCell id="DvsllvoOx6BmzzlcIda9-215" value="" style="rounded=0;whiteSpace=wrap;html=1;fillColor=#fff2cc;strokeColor=#d6b656;" vertex="1" parent="1">
          <mxGeometry x="935" y="800" width="80" height="60" as="geometry" />
        </mxCell>
        <mxCell id="DvsllvoOx6BmzzlcIda9-216" value="" style="rounded=0;whiteSpace=wrap;html=1;fillColor=#dae8fc;strokeColor=#6c8ebf;" vertex="1" parent="1">
          <mxGeometry x="1045" y="800" width="80" height="60" as="geometry" />
        </mxCell>
        <mxCell id="DvsllvoOx6BmzzlcIda9-217" value="Gate" style="text;strokeColor=none;align=center;fillColor=none;html=1;verticalAlign=middle;whiteSpace=wrap;rounded=0;" vertex="1" parent="1">
          <mxGeometry x="612.5" y="800" width="60" height="20" as="geometry" />
        </mxCell>
        <mxCell id="DvsllvoOx6BmzzlcIda9-218" value="D1" style="text;strokeColor=none;align=center;fillColor=none;html=1;verticalAlign=middle;whiteSpace=wrap;rounded=0;" vertex="1" parent="1">
          <mxGeometry x="612.5" y="815" width="60" height="30" as="geometry" />
        </mxCell>
        <mxCell id="DvsllvoOx6BmzzlcIda9-219" value="AA123" style="text;strokeColor=none;align=center;fillColor=none;html=1;verticalAlign=middle;whiteSpace=wrap;rounded=0;" vertex="1" parent="1">
          <mxGeometry x="612.5" y="830" width="60" height="30" as="geometry" />
        </mxCell>
        <mxCell id="DvsllvoOx6BmzzlcIda9-220" value="Gate" style="text;strokeColor=none;align=center;fillColor=none;html=1;verticalAlign=middle;whiteSpace=wrap;rounded=0;" vertex="1" parent="1">
          <mxGeometry x="725" y="800" width="60" height="20" as="geometry" />
        </mxCell>
        <mxCell id="DvsllvoOx6BmzzlcIda9-221" value="Gate" style="text;strokeColor=none;align=center;fillColor=none;html=1;verticalAlign=middle;whiteSpace=wrap;rounded=0;" vertex="1" parent="1">
          <mxGeometry x="835" y="800" width="60" height="20" as="geometry" />
        </mxCell>
        <mxCell id="DvsllvoOx6BmzzlcIda9-222" value="Gate" style="text;strokeColor=none;align=center;fillColor=none;html=1;verticalAlign=middle;whiteSpace=wrap;rounded=0;" vertex="1" parent="1">
          <mxGeometry x="945" y="800" width="60" height="20" as="geometry" />
        </mxCell>
        <mxCell id="DvsllvoOx6BmzzlcIda9-223" value="Gate" style="text;strokeColor=none;align=center;fillColor=none;html=1;verticalAlign=middle;whiteSpace=wrap;rounded=0;" vertex="1" parent="1">
          <mxGeometry x="1055" y="800" width="60" height="20" as="geometry" />
        </mxCell>
        <mxCell id="DvsllvoOx6BmzzlcIda9-224" value="AA123" style="text;strokeColor=none;align=center;fillColor=none;html=1;verticalAlign=middle;whiteSpace=wrap;rounded=0;" vertex="1" parent="1">
          <mxGeometry x="725" y="830" width="60" height="30" as="geometry" />
        </mxCell>
        <mxCell id="DvsllvoOx6BmzzlcIda9-225" value="AA123" style="text;strokeColor=none;align=center;fillColor=none;html=1;verticalAlign=middle;whiteSpace=wrap;rounded=0;" vertex="1" parent="1">
          <mxGeometry x="835" y="830" width="60" height="30" as="geometry" />
        </mxCell>
        <mxCell id="DvsllvoOx6BmzzlcIda9-226" value="AA123" style="text;strokeColor=none;align=center;fillColor=none;html=1;verticalAlign=middle;whiteSpace=wrap;rounded=0;" vertex="1" parent="1">
          <mxGeometry x="945" y="830" width="60" height="30" as="geometry" />
        </mxCell>
        <mxCell id="DvsllvoOx6BmzzlcIda9-227" value="AA123" style="text;strokeColor=none;align=center;fillColor=none;html=1;verticalAlign=middle;whiteSpace=wrap;rounded=0;" vertex="1" parent="1">
          <mxGeometry x="1055" y="830" width="60" height="30" as="geometry" />
        </mxCell>
        <mxCell id="DvsllvoOx6BmzzlcIda9-228" value="D2" style="text;strokeColor=none;align=center;fillColor=none;html=1;verticalAlign=middle;whiteSpace=wrap;rounded=0;" vertex="1" parent="1">
          <mxGeometry x="725" y="815" width="60" height="30" as="geometry" />
        </mxCell>
        <mxCell id="DvsllvoOx6BmzzlcIda9-229" value="D3" style="text;strokeColor=none;align=center;fillColor=none;html=1;verticalAlign=middle;whiteSpace=wrap;rounded=0;" vertex="1" parent="1">
          <mxGeometry x="835" y="815" width="60" height="30" as="geometry" />
        </mxCell>
        <mxCell id="DvsllvoOx6BmzzlcIda9-230" value="D4" style="text;strokeColor=none;align=center;fillColor=none;html=1;verticalAlign=middle;whiteSpace=wrap;rounded=0;" vertex="1" parent="1">
          <mxGeometry x="945" y="815" width="60" height="30" as="geometry" />
        </mxCell>
        <mxCell id="DvsllvoOx6BmzzlcIda9-231" value="D5" style="text;strokeColor=none;align=center;fillColor=none;html=1;verticalAlign=middle;whiteSpace=wrap;rounded=0;" vertex="1" parent="1">
          <mxGeometry x="1055" y="815" width="60" height="30" as="geometry" />
        </mxCell>
        <mxCell id="DvsllvoOx6BmzzlcIda9-232" value="&lt;font style=&quot;font-size: 19px;&quot;&gt;&lt;b&gt;Upcoming Assignments&lt;br&gt;&lt;/b&gt;&lt;/font&gt;" style="text;strokeColor=none;align=center;fillColor=none;html=1;verticalAlign=middle;whiteSpace=wrap;rounded=0;" vertex="1" parent="1">
          <mxGeometry x="1130" y="460" width="250" height="30" as="geometry" />
        </mxCell>
        <mxCell id="DvsllvoOx6BmzzlcIda9-311" value="&lt;font style=&quot;font-size: 19px;&quot;&gt;&lt;b&gt;Gate Status Overview&lt;br&gt;&lt;/b&gt;&lt;/font&gt;" style="text;strokeColor=none;align=center;fillColor=none;html=1;verticalAlign=middle;whiteSpace=wrap;rounded=0;" vertex="1" parent="1">
          <mxGeometry x="390" y="460" width="250" height="30" as="geometry" />
        </mxCell>
        <mxCell id="DvsllvoOx6BmzzlcIda9-312" value="&lt;span style=&quot;color: rgb(255, 255, 255);&quot;&gt;Destination&lt;/span&gt;" style="rounded=0;whiteSpace=wrap;html=1;fillColor=#000099;" vertex="1" parent="1">
          <mxGeometry x="1275" y="520" width="130" height="20" as="geometry" />
        </mxCell>
        <mxCell id="DvsllvoOx6BmzzlcIda9-313" value="&lt;span style=&quot;color: rgb(255, 255, 255);&quot;&gt;Flight&lt;/span&gt;" style="rounded=0;whiteSpace=wrap;html=1;fillColor=#000099;" vertex="1" parent="1">
          <mxGeometry x="1145" y="520" width="130" height="20" as="geometry" />
        </mxCell>
        <mxCell id="DvsllvoOx6BmzzlcIda9-314" value="&lt;span style=&quot;color: rgb(255, 255, 255);&quot;&gt;Time&lt;/span&gt;" style="rounded=0;whiteSpace=wrap;html=1;fillColor=#000099;" vertex="1" parent="1">
          <mxGeometry x="1405" y="520" width="130" height="20" as="geometry" />
        </mxCell>
        <mxCell id="DvsllvoOx6BmzzlcIda9-315" value="&lt;span style=&quot;color: rgb(255, 255, 255);&quot;&gt;Gate&lt;/span&gt;" style="rounded=0;whiteSpace=wrap;html=1;fillColor=#000099;" vertex="1" parent="1">
          <mxGeometry x="1535" y="520" width="130" height="20" as="geometry" />
        </mxCell>
        <mxCell id="DvsllvoOx6BmzzlcIda9-316" value="&lt;span style=&quot;color: rgb(255, 255, 255);&quot;&gt;Status&lt;/span&gt;" style="rounded=0;whiteSpace=wrap;html=1;fillColor=#000099;" vertex="1" parent="1">
          <mxGeometry x="1665" y="520" width="130" height="20" as="geometry" />
        </mxCell>
        <mxCell id="DvsllvoOx6BmzzlcIda9-317" value="&lt;span style=&quot;color: rgb(255, 255, 255);&quot;&gt;Terminal&lt;/span&gt;" style="rounded=0;whiteSpace=wrap;html=1;fillColor=#000099;" vertex="1" parent="1">
          <mxGeometry x="1795" y="520" width="130" height="20" as="geometry" />
        </mxCell>
        <mxCell id="DvsllvoOx6BmzzlcIda9-318" value="Destination" style="rounded=0;whiteSpace=wrap;html=1;" vertex="1" parent="1">
          <mxGeometry x="1275" y="540" width="130" height="20" as="geometry" />
        </mxCell>
        <mxCell id="DvsllvoOx6BmzzlcIda9-319" value="Flight" style="rounded=0;whiteSpace=wrap;html=1;" vertex="1" parent="1">
          <mxGeometry x="1145" y="540" width="130" height="20" as="geometry" />
        </mxCell>
        <mxCell id="DvsllvoOx6BmzzlcIda9-320" value="Time" style="rounded=0;whiteSpace=wrap;html=1;" vertex="1" parent="1">
          <mxGeometry x="1405" y="540" width="130" height="20" as="geometry" />
        </mxCell>
        <mxCell id="DvsllvoOx6BmzzlcIda9-321" value="Gate" style="rounded=0;whiteSpace=wrap;html=1;" vertex="1" parent="1">
          <mxGeometry x="1535" y="540" width="130" height="20" as="geometry" />
        </mxCell>
        <mxCell id="DvsllvoOx6BmzzlcIda9-322" value="Status" style="rounded=0;whiteSpace=wrap;html=1;" vertex="1" parent="1">
          <mxGeometry x="1665" y="540" width="130" height="20" as="geometry" />
        </mxCell>
        <mxCell id="DvsllvoOx6BmzzlcIda9-323" value="Terminal" style="rounded=0;whiteSpace=wrap;html=1;" vertex="1" parent="1">
          <mxGeometry x="1795" y="540" width="130" height="20" as="geometry" />
        </mxCell>
        <mxCell id="DvsllvoOx6BmzzlcIda9-324" value="Destination" style="rounded=0;whiteSpace=wrap;html=1;" vertex="1" parent="1">
          <mxGeometry x="1275" y="560" width="130" height="20" as="geometry" />
        </mxCell>
        <mxCell id="DvsllvoOx6BmzzlcIda9-325" value="Flight" style="rounded=0;whiteSpace=wrap;html=1;" vertex="1" parent="1">
          <mxGeometry x="1145" y="560" width="130" height="20" as="geometry" />
        </mxCell>
        <mxCell id="DvsllvoOx6BmzzlcIda9-326" value="Time" style="rounded=0;whiteSpace=wrap;html=1;" vertex="1" parent="1">
          <mxGeometry x="1405" y="560" width="130" height="20" as="geometry" />
        </mxCell>
        <mxCell id="DvsllvoOx6BmzzlcIda9-327" value="Gate" style="rounded=0;whiteSpace=wrap;html=1;" vertex="1" parent="1">
          <mxGeometry x="1535" y="560" width="130" height="20" as="geometry" />
        </mxCell>
        <mxCell id="DvsllvoOx6BmzzlcIda9-328" value="Status" style="rounded=0;whiteSpace=wrap;html=1;" vertex="1" parent="1">
          <mxGeometry x="1665" y="560" width="130" height="20" as="geometry" />
        </mxCell>
        <mxCell id="DvsllvoOx6BmzzlcIda9-329" value="Terminal" style="rounded=0;whiteSpace=wrap;html=1;" vertex="1" parent="1">
          <mxGeometry x="1795" y="560" width="130" height="20" as="geometry" />
        </mxCell>
        <mxCell id="DvsllvoOx6BmzzlcIda9-330" value="Destination" style="rounded=0;whiteSpace=wrap;html=1;" vertex="1" parent="1">
          <mxGeometry x="1275" y="580" width="130" height="20" as="geometry" />
        </mxCell>
        <mxCell id="DvsllvoOx6BmzzlcIda9-331" value="Flight" style="rounded=0;whiteSpace=wrap;html=1;" vertex="1" parent="1">
          <mxGeometry x="1145" y="580" width="130" height="20" as="geometry" />
        </mxCell>
        <mxCell id="DvsllvoOx6BmzzlcIda9-332" value="Time" style="rounded=0;whiteSpace=wrap;html=1;" vertex="1" parent="1">
          <mxGeometry x="1405" y="580" width="130" height="20" as="geometry" />
        </mxCell>
        <mxCell id="DvsllvoOx6BmzzlcIda9-333" value="Gate" style="rounded=0;whiteSpace=wrap;html=1;" vertex="1" parent="1">
          <mxGeometry x="1535" y="580" width="130" height="20" as="geometry" />
        </mxCell>
        <mxCell id="DvsllvoOx6BmzzlcIda9-334" value="Status" style="rounded=0;whiteSpace=wrap;html=1;" vertex="1" parent="1">
          <mxGeometry x="1665" y="580" width="130" height="20" as="geometry" />
        </mxCell>
        <mxCell id="DvsllvoOx6BmzzlcIda9-335" value="Terminal" style="rounded=0;whiteSpace=wrap;html=1;" vertex="1" parent="1">
          <mxGeometry x="1795" y="580" width="130" height="20" as="geometry" />
        </mxCell>
        <mxCell id="DvsllvoOx6BmzzlcIda9-336" value="Destination" style="rounded=0;whiteSpace=wrap;html=1;" vertex="1" parent="1">
          <mxGeometry x="1275" y="600" width="130" height="20" as="geometry" />
        </mxCell>
        <mxCell id="DvsllvoOx6BmzzlcIda9-337" value="Flight" style="rounded=0;whiteSpace=wrap;html=1;" vertex="1" parent="1">
          <mxGeometry x="1145" y="600" width="130" height="20" as="geometry" />
        </mxCell>
        <mxCell id="DvsllvoOx6BmzzlcIda9-338" value="Time" style="rounded=0;whiteSpace=wrap;html=1;" vertex="1" parent="1">
          <mxGeometry x="1405" y="600" width="130" height="20" as="geometry" />
        </mxCell>
        <mxCell id="DvsllvoOx6BmzzlcIda9-339" value="Gate" style="rounded=0;whiteSpace=wrap;html=1;" vertex="1" parent="1">
          <mxGeometry x="1535" y="600" width="130" height="20" as="geometry" />
        </mxCell>
        <mxCell id="DvsllvoOx6BmzzlcIda9-340" value="Status" style="rounded=0;whiteSpace=wrap;html=1;" vertex="1" parent="1">
          <mxGeometry x="1665" y="600" width="130" height="20" as="geometry" />
        </mxCell>
        <mxCell id="DvsllvoOx6BmzzlcIda9-341" value="Terminal" style="rounded=0;whiteSpace=wrap;html=1;" vertex="1" parent="1">
          <mxGeometry x="1795" y="600" width="130" height="20" as="geometry" />
        </mxCell>
        <mxCell id="DvsllvoOx6BmzzlcIda9-342" value="Destination" style="rounded=0;whiteSpace=wrap;html=1;" vertex="1" parent="1">
          <mxGeometry x="1275" y="620" width="130" height="20" as="geometry" />
        </mxCell>
        <mxCell id="DvsllvoOx6BmzzlcIda9-343" value="Flight" style="rounded=0;whiteSpace=wrap;html=1;" vertex="1" parent="1">
          <mxGeometry x="1145" y="620" width="130" height="20" as="geometry" />
        </mxCell>
        <mxCell id="DvsllvoOx6BmzzlcIda9-344" value="Time" style="rounded=0;whiteSpace=wrap;html=1;" vertex="1" parent="1">
          <mxGeometry x="1405" y="620" width="130" height="20" as="geometry" />
        </mxCell>
        <mxCell id="DvsllvoOx6BmzzlcIda9-345" value="Gate" style="rounded=0;whiteSpace=wrap;html=1;" vertex="1" parent="1">
          <mxGeometry x="1535" y="620" width="130" height="20" as="geometry" />
        </mxCell>
        <mxCell id="DvsllvoOx6BmzzlcIda9-346" value="Status" style="rounded=0;whiteSpace=wrap;html=1;" vertex="1" parent="1">
          <mxGeometry x="1665" y="620" width="130" height="20" as="geometry" />
        </mxCell>
        <mxCell id="DvsllvoOx6BmzzlcIda9-347" value="Terminal" style="rounded=0;whiteSpace=wrap;html=1;" vertex="1" parent="1">
          <mxGeometry x="1795" y="620" width="130" height="20" as="geometry" />
        </mxCell>
        <mxCell id="DvsllvoOx6BmzzlcIda9-348" value="Destination" style="rounded=0;whiteSpace=wrap;html=1;" vertex="1" parent="1">
          <mxGeometry x="1275" y="640" width="130" height="20" as="geometry" />
        </mxCell>
        <mxCell id="DvsllvoOx6BmzzlcIda9-349" value="Flight" style="rounded=0;whiteSpace=wrap;html=1;" vertex="1" parent="1">
          <mxGeometry x="1145" y="640" width="130" height="20" as="geometry" />
        </mxCell>
        <mxCell id="DvsllvoOx6BmzzlcIda9-350" value="Time" style="rounded=0;whiteSpace=wrap;html=1;" vertex="1" parent="1">
          <mxGeometry x="1405" y="640" width="130" height="20" as="geometry" />
        </mxCell>
        <mxCell id="DvsllvoOx6BmzzlcIda9-351" value="Gate" style="rounded=0;whiteSpace=wrap;html=1;" vertex="1" parent="1">
          <mxGeometry x="1535" y="640" width="130" height="20" as="geometry" />
        </mxCell>
        <mxCell id="DvsllvoOx6BmzzlcIda9-352" value="Status" style="rounded=0;whiteSpace=wrap;html=1;" vertex="1" parent="1">
          <mxGeometry x="1665" y="640" width="130" height="20" as="geometry" />
        </mxCell>
        <mxCell id="DvsllvoOx6BmzzlcIda9-353" value="Terminal" style="rounded=0;whiteSpace=wrap;html=1;" vertex="1" parent="1">
          <mxGeometry x="1795" y="640" width="130" height="20" as="geometry" />
        </mxCell>
        <mxCell id="DvsllvoOx6BmzzlcIda9-354" value="Destination" style="rounded=0;whiteSpace=wrap;html=1;" vertex="1" parent="1">
          <mxGeometry x="1275" y="660" width="130" height="20" as="geometry" />
        </mxCell>
        <mxCell id="DvsllvoOx6BmzzlcIda9-355" value="Flight" style="rounded=0;whiteSpace=wrap;html=1;" vertex="1" parent="1">
          <mxGeometry x="1145" y="660" width="130" height="20" as="geometry" />
        </mxCell>
        <mxCell id="DvsllvoOx6BmzzlcIda9-356" value="Time" style="rounded=0;whiteSpace=wrap;html=1;" vertex="1" parent="1">
          <mxGeometry x="1405" y="660" width="130" height="20" as="geometry" />
        </mxCell>
        <mxCell id="DvsllvoOx6BmzzlcIda9-357" value="Gate" style="rounded=0;whiteSpace=wrap;html=1;" vertex="1" parent="1">
          <mxGeometry x="1535" y="660" width="130" height="20" as="geometry" />
        </mxCell>
        <mxCell id="DvsllvoOx6BmzzlcIda9-358" value="Status" style="rounded=0;whiteSpace=wrap;html=1;" vertex="1" parent="1">
          <mxGeometry x="1665" y="660" width="130" height="20" as="geometry" />
        </mxCell>
        <mxCell id="DvsllvoOx6BmzzlcIda9-359" value="Terminal" style="rounded=0;whiteSpace=wrap;html=1;" vertex="1" parent="1">
          <mxGeometry x="1795" y="660" width="130" height="20" as="geometry" />
        </mxCell>
        <mxCell id="DvsllvoOx6BmzzlcIda9-360" value="" style="endArrow=none;html=1;rounded=0;exitX=1;exitY=0.25;exitDx=0;exitDy=0;entryX=1;entryY=0.25;entryDx=0;entryDy=0;" edge="1" parent="1" source="DvsllvoOx6BmzzlcIda9-119" target="DvsllvoOx6BmzzlcIda9-117">
          <mxGeometry width="50" height="50" relative="1" as="geometry">
            <mxPoint x="990" y="690" as="sourcePoint" />
            <mxPoint x="1040" y="640" as="targetPoint" />
          </mxGeometry>
        </mxCell>
      </root>
    </mxGraphModel>
  </diagram>
</mxfile>
